<svg width="80" height="80" viewBox="0 0 80 80" fill="none" xmlns="http://www.w3.org/2000/svg">
<path d="M0 13.6364C0 6.10521 6.10521 0 13.6364 0H39.932C43.0605 0 45.9437 1.69438 47.466 4.42759V4.42759C50.754 10.331 59.246 10.331 62.534 4.42759V4.42759C64.0563 1.69438 66.9395 0 70.068 0H70.5523C75.7701 0 80 4.2299 80 9.44774V66.3636C80 73.8948 73.8948 80 66.3636 80H13.6364C6.10521 80 0 73.8948 0 66.3636V13.6364Z" fill="#2678C5"/>
<path d="M35.5174 65.9649C35.0973 65.9649 34.7536 65.8293 34.4863 65.5579C34.2189 65.2478 34.0853 64.8989 34.0853 64.5113V34.392H23.8883C23.4682 34.392 23.1245 34.2563 22.8572 33.985C22.5898 33.6749 22.4562 33.326 22.4562 32.9384V26.7168C22.4562 26.2904 22.5898 25.9415 22.8572 25.6702C23.1245 25.3989 23.4682 25.2632 23.8883 25.2632H54.7082C55.1283 25.2632 55.4721 25.3989 55.7394 25.6702C56.0067 25.9415 56.1404 26.2904 56.1404 26.7168V32.9384C56.1404 33.326 56.0067 33.6749 55.7394 33.985C55.4721 34.2563 55.1283 34.392 54.7082 34.392H44.5113V64.5113C44.5113 64.8989 44.3776 65.2478 44.1103 65.5579C43.843 65.8293 43.4993 65.9649 43.0792 65.9649H35.5174Z" fill="white"/>
</svg>
