<svg width="256" height="256" viewBox="0 0 256 256" fill="none" xmlns="http://www.w3.org/2000/svg">
<path fill-rule="evenodd" clip-rule="evenodd" d="M40 40C40 23.4315 53.4315 10 70 10H127.85C134.733 10 141.076 13.7276 144.425 19.7407C151.659 32.7283 170.341 32.7283 177.575 19.7407C180.924 13.7276 187.267 10 194.15 10H195.215C206.694 10 216 19.3058 216 30.785V156C216 172.569 202.569 186 186 186H70C53.4315 186 40 172.569 40 156V40ZM118.872 154C117.933 154 117.165 153.701 116.568 153.104C115.971 152.421 115.672 151.653 115.672 150.8V84.496H92.888C91.9493 84.496 91.1813 84.1973 90.584 83.6C89.9867 82.9173 89.688 82.1493 89.688 81.296V67.6C89.688 66.6613 89.9867 65.8933 90.584 65.296C91.1813 64.6987 91.9493 64.4 92.888 64.4H161.752C162.691 64.4 163.459 64.6987 164.056 65.296C164.653 65.8933 164.952 66.6613 164.952 67.6V81.296C164.952 82.1493 164.653 82.9173 164.056 83.6C163.459 84.1973 162.691 84.496 161.752 84.496H138.968V150.8C138.968 151.653 138.669 152.421 138.072 153.104C137.475 153.701 136.707 154 135.768 154H118.872ZM63.604 239.748C63.772 239.916 63.976 240 64.216 240H67.528C67.792 240 68.008 239.916 68.176 239.748C68.344 239.58 68.428 239.376 68.428 239.136V219.228H75.052C75.316 219.228 75.532 219.144 75.7 218.976C75.868 218.808 75.952 218.604 75.952 218.364V215.7C75.952 215.436 75.868 215.22 75.7 215.052C75.532 214.884 75.316 214.8 75.052 214.8H56.692C56.452 214.8 56.248 214.884 56.08 215.052C55.912 215.22 55.828 215.436 55.828 215.7V218.364C55.828 218.604 55.912 218.808 56.08 218.976C56.248 219.144 56.452 219.228 56.692 219.228H63.352V239.136C63.352 239.376 63.436 239.58 63.604 239.748ZM79.2139 239.748C79.3819 239.916 79.5859 240 79.8259 240H82.8139C83.0779 240 83.2819 239.916 83.4259 239.748C83.5939 239.58 83.6779 239.376 83.6779 239.136V222.144C83.6779 221.904 83.5939 221.7 83.4259 221.532C83.2819 221.364 83.0779 221.28 82.8139 221.28H79.8259C79.5859 221.28 79.3819 221.364 79.2139 221.532C79.0459 221.7 78.9619 221.904 78.9619 222.144V239.136C78.9619 239.376 79.0459 239.58 79.2139 239.748ZM79.0699 217.932C79.2379 218.1 79.4419 218.184 79.6819 218.184H82.9579C83.2219 218.184 83.4379 218.1 83.6059 217.932C83.7739 217.764 83.8579 217.56 83.8579 217.32V214.728C83.8579 214.488 83.7739 214.284 83.6059 214.116C83.4379 213.948 83.2219 213.864 82.9579 213.864H79.6819C79.4419 213.864 79.2379 213.948 79.0699 214.116C78.9019 214.284 78.8179 214.488 78.8179 214.728V217.32C78.8179 217.56 78.9019 217.764 79.0699 217.932ZM90.5061 239.64C91.5141 240.12 92.6421 240.36 93.8901 240.36C94.9221 240.36 95.8101 240.24 96.5541 240C97.3221 239.736 97.9701 239.4 98.4981 238.992C99.0261 238.584 99.4461 238.164 99.7581 237.732V239.136C99.7581 239.376 99.8301 239.58 99.9741 239.748C100.142 239.916 100.358 240 100.622 240H103.538C103.778 240 103.982 239.916 104.15 239.748C104.318 239.58 104.402 239.376 104.402 239.136V227.832C104.402 226.896 104.258 226.008 103.97 225.168C103.682 224.328 103.226 223.596 102.602 222.972C101.978 222.348 101.138 221.856 100.082 221.496C99.0501 221.112 97.7781 220.92 96.2661 220.92C94.8741 220.92 93.6861 221.1 92.7021 221.46C91.7181 221.82 90.9141 222.264 90.2901 222.792C89.6901 223.296 89.2341 223.824 88.9221 224.376C88.6341 224.928 88.4781 225.396 88.4541 225.78C88.4541 226.02 88.5141 226.212 88.6341 226.356C88.7781 226.5 88.9821 226.572 89.2461 226.572H92.0901C92.4501 226.572 92.7261 226.416 92.9181 226.104C93.1821 225.528 93.5781 225.072 94.1061 224.736C94.6581 224.376 95.3661 224.196 96.2301 224.196C97.4541 224.196 98.3181 224.472 98.8221 225.024C99.3261 225.576 99.5781 226.356 99.5781 227.364V228.12L94.6461 228.84C92.4381 229.176 90.6501 229.848 89.2821 230.856C87.9141 231.84 87.2301 233.172 87.2301 234.852C87.2301 235.884 87.5181 236.82 88.0941 237.66C88.6941 238.476 89.4981 239.136 90.5061 239.64ZM97.3821 236.4C96.7101 236.76 95.9541 236.94 95.1141 236.94C94.5621 236.94 94.0341 236.856 93.5301 236.688C93.0261 236.496 92.6061 236.22 92.2701 235.86C91.9581 235.476 91.8021 235.02 91.8021 234.492C91.8021 233.796 92.1501 233.208 92.8461 232.728C93.5421 232.248 94.5981 231.9 96.0141 231.684L99.6141 231.108V231.864C99.6141 233.016 99.4101 233.976 99.0021 234.744C98.6181 235.488 98.0781 236.04 97.3821 236.4ZM109.309 246.588C109.477 246.756 109.681 246.84 109.921 246.84H112.981C113.245 246.84 113.449 246.756 113.593 246.588C113.761 246.42 113.845 246.216 113.845 245.976V237.804C114.421 238.572 115.165 239.196 116.077 239.676C116.989 240.132 118.093 240.36 119.389 240.36C120.661 240.36 121.765 240.144 122.701 239.712C123.637 239.28 124.417 238.692 125.041 237.948C125.689 237.18 126.181 236.292 126.517 235.284C126.853 234.252 127.033 233.136 127.057 231.936C127.081 231.504 127.093 231.072 127.093 230.64C127.093 230.208 127.081 229.788 127.057 229.38C127.009 228.132 126.817 226.992 126.481 225.96C126.145 224.928 125.665 224.04 125.041 223.296C124.417 222.528 123.637 221.94 122.701 221.532C121.765 221.124 120.661 220.92 119.389 220.92C117.997 220.92 116.833 221.172 115.897 221.676C114.961 222.18 114.205 222.816 113.629 223.584V222.144C113.629 221.904 113.545 221.7 113.377 221.532C113.233 221.364 113.029 221.28 112.765 221.28H109.921C109.681 221.28 109.477 221.364 109.309 221.532C109.141 221.7 109.057 221.904 109.057 222.144V245.976C109.057 246.216 109.141 246.42 109.309 246.588ZM120.469 235.86C119.893 236.292 119.089 236.508 118.057 236.508C117.097 236.508 116.317 236.292 115.717 235.86C115.117 235.428 114.661 234.888 114.349 234.24C114.037 233.568 113.869 232.872 113.845 232.152C113.821 231.696 113.809 231.228 113.809 230.748C113.809 230.268 113.821 229.812 113.845 229.38C113.893 228.636 114.049 227.916 114.313 227.22C114.601 226.5 115.045 225.912 115.645 225.456C116.269 225 117.073 224.772 118.057 224.772C119.089 224.772 119.893 225 120.469 225.456C121.045 225.888 121.465 226.464 121.729 227.184C121.993 227.904 122.149 228.696 122.197 229.56C122.221 230.28 122.221 231 122.197 231.72C122.149 232.584 121.993 233.376 121.729 234.096C121.465 234.816 121.045 235.404 120.469 235.86ZM131.818 239.784C131.986 239.928 132.19 240 132.43 240H135.706C135.97 240 136.174 239.916 136.318 239.748C136.486 239.58 136.57 239.376 136.57 239.136V229.488H147.19V239.136C147.19 239.376 147.274 239.58 147.442 239.748C147.61 239.916 147.814 240 148.054 240H151.294C151.558 240 151.774 239.916 151.942 239.748C152.11 239.58 152.194 239.376 152.194 239.136V215.7C152.194 215.436 152.11 215.22 151.942 215.052C151.774 214.884 151.558 214.8 151.294 214.8H148.054C147.814 214.8 147.61 214.884 147.442 215.052C147.274 215.22 147.19 215.436 147.19 215.7V224.988H136.57V215.7C136.57 215.436 136.486 215.22 136.318 215.052C136.174 214.884 135.97 214.8 135.706 214.8H132.43C132.19 214.8 131.986 214.884 131.818 215.052C131.65 215.22 131.566 215.436 131.566 215.7V239.136C131.566 239.4 131.65 239.616 131.818 239.784ZM159.412 239.64C160.42 240.12 161.548 240.36 162.796 240.36C163.828 240.36 164.716 240.24 165.46 240C166.228 239.736 166.876 239.4 167.404 238.992C167.932 238.584 168.352 238.164 168.664 237.732V239.136C168.664 239.376 168.736 239.58 168.88 239.748C169.048 239.916 169.264 240 169.528 240H172.444C172.684 240 172.888 239.916 173.056 239.748C173.224 239.58 173.308 239.376 173.308 239.136V227.832C173.308 226.896 173.164 226.008 172.876 225.168C172.588 224.328 172.132 223.596 171.508 222.972C170.884 222.348 170.044 221.856 168.988 221.496C167.956 221.112 166.684 220.92 165.172 220.92C163.78 220.92 162.592 221.1 161.608 221.46C160.624 221.82 159.82 222.264 159.196 222.792C158.596 223.296 158.14 223.824 157.828 224.376C157.54 224.928 157.384 225.396 157.36 225.78C157.36 226.02 157.42 226.212 157.54 226.356C157.684 226.5 157.888 226.572 158.152 226.572H160.996C161.356 226.572 161.632 226.416 161.824 226.104C162.088 225.528 162.484 225.072 163.012 224.736C163.564 224.376 164.272 224.196 165.136 224.196C166.36 224.196 167.224 224.472 167.728 225.024C168.232 225.576 168.484 226.356 168.484 227.364V228.12L163.552 228.84C161.344 229.176 159.556 229.848 158.188 230.856C156.82 231.84 156.136 233.172 156.136 234.852C156.136 235.884 156.424 236.82 157 237.66C157.6 238.476 158.404 239.136 159.412 239.64ZM166.288 236.4C165.616 236.76 164.86 236.94 164.02 236.94C163.468 236.94 162.94 236.856 162.436 236.688C161.932 236.496 161.512 236.22 161.176 235.86C160.864 235.476 160.708 235.02 160.708 234.492C160.708 233.796 161.056 233.208 161.752 232.728C162.448 232.248 163.504 231.9 164.92 231.684L168.52 231.108V231.864C168.52 233.016 168.316 233.976 167.908 234.744C167.524 235.488 166.984 236.04 166.288 236.4ZM178.179 239.748C178.347 239.916 178.551 240 178.791 240H181.923C182.187 240 182.403 239.916 182.571 239.748C182.739 239.58 182.823 239.376 182.823 239.136V229.236C182.823 228.084 183.135 227.196 183.759 226.572C184.407 225.924 185.307 225.6 186.459 225.6H189.267C189.531 225.6 189.735 225.516 189.879 225.348C190.047 225.18 190.131 224.976 190.131 224.736V222.144C190.131 221.904 190.047 221.7 189.879 221.532C189.735 221.364 189.531 221.28 189.267 221.28H187.791C186.639 221.28 185.619 221.484 184.731 221.892C183.867 222.3 183.159 222.888 182.607 223.656V222.18C182.607 221.916 182.511 221.7 182.319 221.532C182.151 221.364 181.947 221.28 181.707 221.28H178.791C178.551 221.28 178.347 221.364 178.179 221.532C178.011 221.7 177.927 221.916 177.927 222.18V239.136C177.927 239.376 178.011 239.58 178.179 239.748ZM193.191 239.748C193.359 239.916 193.562 240 193.803 240H196.79C197.055 240 197.258 239.916 197.402 239.748C197.57 239.58 197.654 239.376 197.654 239.136V222.144C197.654 221.904 197.57 221.7 197.402 221.532C197.258 221.364 197.055 221.28 196.79 221.28H193.803C193.562 221.28 193.359 221.364 193.191 221.532C193.023 221.7 192.939 221.904 192.939 222.144V239.136C192.939 239.376 193.023 239.58 193.191 239.748ZM193.046 217.932C193.214 218.1 193.419 218.184 193.658 218.184H196.934C197.199 218.184 197.415 218.1 197.583 217.932C197.751 217.764 197.835 217.56 197.835 217.32V214.728C197.835 214.488 197.751 214.284 197.583 214.116C197.415 213.948 197.199 213.864 196.934 213.864H193.658C193.419 213.864 193.214 213.948 193.046 214.116C192.878 214.284 192.794 214.488 192.794 214.728V217.32C192.794 217.56 192.878 217.764 193.046 217.932Z" fill="white"/>
</svg>
